Coordinates
version=1
nRows=9
nColumns=36
inDegrees=yes

Units are S.I. units (second, meters, Newtons, ...)
If the header above contains a line with 'inDegrees', this indicates whether rotational values are in degrees (yes) or radians (no).

endheader
time	pelvis_tilt	pelvis_list	pelvis_rotation	pelvis_tx	pelvis_ty	pelvis_tz	hip_flexion_r	hip_adduction_r	hip_rotation_r	knee_angle_r	knee_angle_r_beta	ankle_angle_r	subtalar_angle_r	mtp_angle_r	hip_flexion_l	hip_adduction_l	hip_rotation_l	knee_angle_l	knee_angle_l_beta	ankle_angle_l	subtalar_angle_l	mtp_angle_l	lumbar_extension	lumbar_bending	lumbar_rotation	arm_flex_r	arm_add_r	arm_rot_r	elbow_flex_r	pro_sup_r	arm_flex_l	arm_add_l	arm_rot_l	elbow_flex_l	pro_sup_l
      3.30833330	    -11.83645626	      1.39142851	      1.74023284	      0.36935208	      1.45469648	     -0.05301153	      7.50322750	    -13.04495080	    -22.12015046	      4.44063818	      0.07750376	    -32.82117768	      1.39683668	     -7.49999987	      8.96427592	     -8.05036540	    -15.03118302	      8.65794625	      0.15110967	    -28.12913995	     -0.65851835	     -7.49999987	      3.13654841	     -0.80807631	     -0.24094568	    130.82744377	    -24.21431862	     35.19000539	     77.30755463	     89.13690910	    138.44718611	    -27.84771860	     45.33169959	     89.14487183	     86.00707900
      3.31250000	    -11.73317639	      1.49512783	      1.67200664	      0.37038314	      1.46376616	     -0.05139589	      7.39351334	    -13.08296418	    -22.54829521	      3.94750173	      0.06889690	    -32.78304171	      2.16404223	     -7.49999987	      8.82688444	     -7.86283352	    -15.01970424	      8.44012485	      0.14730797	    -27.89160180	     -0.02530003	     -7.49999987	      3.21841340	     -0.89647176	     -0.26465957	    129.82123837	    -24.29944773	     35.16678801	     77.83068635	     89.19091548	    137.47102357	    -28.04736354	     45.35598005	     89.59376441	     86.02917262
      3.31666670	    -11.57310202	      1.46194761	      1.47350761	      0.37132298	      1.46029788	     -0.04946460	      7.35088915	    -12.91650879	    -22.37732799	      3.77133720	      0.06582225	    -33.48943952	      2.14841104	     -7.49999987	      8.57855598	     -7.91017852	    -14.91869213	      8.19244311	      0.14298511	    -27.54449950	      0.96638519	     -7.49999987	      3.12980541	     -0.81899972	     -0.03541911	    129.25130446	    -24.29586276	     34.96933085	     78.44586695	     87.45041366	    136.73746234	    -28.09282774	     44.85457105	     89.97150320	     84.40934511
      3.32083330	    -11.41067516	      1.31231427	      1.51686274	      0.36806874	      1.46055503	     -0.05244022	      7.46653713	    -12.82854500	    -22.55315835	      4.07193742	      0.07106871	    -33.50363413	      1.93138385	     -7.49999987	      8.54543346	     -7.99461095	    -14.39165107	      8.14668582	      0.14218649	    -27.42980244	      0.69449979	     -7.49999987	      2.96027472	     -0.51354815	     -0.02976759	    129.30861111	    -24.15209288	     35.25616277	     78.23347595	     89.92309282	    136.18499809	    -28.34260067	     44.87445726	     90.04035327	     86.34488544
      3.32500000	    -11.29991369	      1.27908941	      1.45873122	      0.37085523	      1.46212337	     -0.04868960	      7.44854593	    -12.66977974	    -22.49685104	      3.77709050	      0.06592267	    -33.84784884	      1.91412764	     -7.49999987	      8.45115781	     -8.11797536	    -13.90536711	      7.92006994	      0.13823130	    -27.14744238	      1.04506712	     -7.49999987	      2.83176392	     -0.59805835	      0.02718317	    129.13465342	    -24.25836516	     35.28925489	     78.33365471	     89.92098963	    136.05066301	    -28.37287965	     45.03687621	     90.14310054	     86.34759118
      3.32916670	    -11.32213275	      1.26694201	      1.45691892	      0.37048427	      1.46430487	     -0.04920234	      7.53204773	    -12.53667172	    -22.54307371	      3.49811564	      0.06105364	    -34.08937664	      1.88403267	     -7.49999987	      8.52297722	     -8.17862016	    -13.62271222	      7.73273050	      0.13496161	    -26.82049095	      1.63647191	     -7.49999987	      2.83113502	     -0.68274772	      0.12935698	    128.96194788	    -24.42918912	     35.35792172	     78.49674348	     89.00308778	    135.91900423	    -28.39544814	     45.21602060	     90.18419150	     85.47435650
      3.33333330	    -11.17426501	      1.31115028	      1.47332940	      0.37044567	      1.46346908	     -0.04961648	      7.48334477	    -12.52889774	    -22.70401481	      3.27556555	      0.05716940	    -34.05795736	      2.12919416	     -7.49999987	      8.47984257	     -8.19947351	    -13.30976533	      7.72186706	      0.13477200	    -26.51815232	      2.22464211	     -7.49999987	      2.50777676	     -0.73317666	      0.13190356	    129.26311933	    -24.49447812	     35.62518926	     78.50820139	     88.62046182	    136.22489063	    -28.47821391	     45.51772050	     90.11664563	     85.09893478
      3.33750000	    -11.37712451	      1.30143735	      1.48282971	      0.36982055	      1.46186692	     -0.05006570	      7.87597233	    -12.54559035	    -22.60686963	      3.24546220	      0.05664400	    -33.93975807	      1.85127261	     -7.49999987	      8.80783794	     -8.25259088	    -13.13147897	      7.66418180	      0.13376521	    -25.96997858	      2.19135490	     -7.49999987	      2.77822224	     -0.73007172	      0.13101955	    129.18061240	    -24.49258942	     35.71054807	     78.42357129	     87.62730660	    136.06898746	    -28.33031678	     45.60116922	     89.80309165	     84.17633320
      3.34166670	    -10.99219622	      1.31709213	      1.47141482	      0.36983700	      1.46173443	     -0.05043500	      7.65288651	    -12.55744711	    -22.60778921	      3.25177429	      0.05675417	    -33.88376412	      1.49622994	     -7.49999987	      8.52134084	     -8.25278999	    -12.61861914	      7.80249174	      0.13617917	    -25.38709450	      2.34606188	     -7.49999987	      2.16454088	     -0.69164212	      0.12562109	    129.75278516	    -24.56626300	     36.28504010	     78.31678299	     87.13812688	    136.40563800	    -28.32385321	     45.86119787	     89.45435410	     83.69466004
